<svg id="Layer_1" data-name="Layer 1" xmlns="http://www.w3.org/2000/svg" viewBox="0 0 39.46 10.27"><defs><style>.cls-1{fill:#58585a;}.cls-2{fill:#fff;}.cls-3{fill:#f89520;}</style></defs><title>autorevo-logo</title><path class="cls-1" d="M12.72,88.82H30a1.7,1.7,0,0,0,1.27-.46,1.75,1.75,0,0,0,.45-1.27V80.27A1.57,1.57,0,0,0,30,78.55H12.72A1.57,1.57,0,0,0,11,80.27v6.81a1.73,1.73,0,0,0,.46,1.27,1.7,1.7,0,0,0,1.27.46h0Z" transform="translate(-11 -78.55)"/><path class="cls-2" d="M30.51,85.8V83.14a2.3,2.3,0,0,0-.46-1.53,1.56,1.56,0,0,0-1.26-.54h-1a1.54,1.54,0,0,0-1.26.54,2.33,2.33,0,0,0-.45,1.53V85.8a2.34,2.34,0,0,0,.45,1.52,1.53,1.53,0,0,0,1.26.55h1a1.55,1.55,0,0,0,1.26-.55,2.3,2.3,0,0,0,.46-1.52h0Zm-1.07.09a0.79,0.79,0,0,1-.79,1H28a0.73,0.73,0,0,1-.61-0.23,1.18,1.18,0,0,1-.19-0.74V83a1.18,1.18,0,0,1,.19-0.74A0.73,0.73,0,0,1,28,82.07h0.67a0.79,0.79,0,0,1,.79,1V85.9h0Z" transform="translate(-11 -78.55)"/><path class="cls-3" d="M50.46,85.7V83A2.37,2.37,0,0,0,50,81.46a1.52,1.52,0,0,0-1.24-.55h-1a1.5,1.5,0,0,0-1.24.55A2.42,2.42,0,0,0,46.13,83v2.7a2.42,2.42,0,0,0,.44,1.54,1.49,1.49,0,0,0,1.24.55h1A1.51,1.51,0,0,0,50,87.24a2.38,2.38,0,0,0,.45-1.54h0Zm-1.05.09a0.79,0.79,0,0,1-.78,1H48a0.71,0.71,0,0,1-.6-0.24,1.22,1.22,0,0,1-.18-0.75V82.91a1.22,1.22,0,0,1,.18-0.75,0.71,0.71,0,0,1,.6-0.24h0.66a0.79,0.79,0,0,1,.78,1V85.8h0Z" transform="translate(-11 -78.55)"/><path class="cls-3" d="M37.29,86.88a0.72,0.72,0,0,1-.58-0.29,1.22,1.22,0,0,1-.18-0.74v-1.2H39.8V83.09a2.36,2.36,0,0,0-.44-1.52A1.47,1.47,0,0,0,38.16,81H37.23a1.45,1.45,0,0,0-1.21.54,2.4,2.4,0,0,0-.43,1.52v2.66A2.41,2.41,0,0,0,36,87.27a1.44,1.44,0,0,0,1.21.55h2.45a0.15,0.15,0,0,0,.14-0.18V87.06a0.15,0.15,0,0,0-.14-0.17H37.29ZM36.53,83.8V82.87a1.22,1.22,0,0,1,.18-0.74,0.68,0.68,0,0,1,.58-0.23h0.84a0.78,0.78,0,0,1,.76,1V83.8H36.53Z" transform="translate(-11 -78.55)"/><path class="cls-3" d="M34.86,81.76V81.19A0.15,0.15,0,0,0,34.71,81H34.23a1.25,1.25,0,0,0-1,.44,1.88,1.88,0,0,0-.37,1.24v4.87a0.15,0.15,0,0,0,.19.16h0.59a0.15,0.15,0,0,0,.18-0.16V82.75c0-.53.12-0.8,0.56-0.8h0.34a0.15,0.15,0,0,0,.16-0.19h0Z" transform="translate(-11 -78.55)"/><path class="cls-2" d="M25.6,87.51V86.92a0.15,0.15,0,0,0-.16-0.18H25.1a0.71,0.71,0,0,1-.72-0.8V82.1A0.1,0.1,0,0,1,24.5,82h0.72a0.17,0.17,0,0,0,.2-0.18V81.23a0.17,0.17,0,0,0-.2-0.19H24.5a0.1,0.1,0,0,1-.12-0.11V79.74a0.17,0.17,0,0,0-.19-0.19l-0.68.53a0.36,0.36,0,0,0-.22.25V86a1.65,1.65,0,0,0,.47,1.26A1.79,1.79,0,0,0,25,87.7h0.41a0.16,0.16,0,0,0,.15-0.19h0Z" transform="translate(-11 -78.55)"/><path class="cls-2" d="M22.16,81.62V81.23a0.17,0.17,0,0,0-.21-0.18H21.31a0.17,0.17,0,0,0-.2.18v0.09h0v4.44a0.92,0.92,0,0,1-.78,1.12H19.68a0.75,0.75,0,0,1-.59-0.32,1.42,1.42,0,0,1-.18-0.8V81.62h0V81.23a0.17,0.17,0,0,0-.21-0.18H18.05a0.17,0.17,0,0,0-.2.18v0.09h0v4.34a2.43,2.43,0,0,0,.44,1.54,1.48,1.48,0,0,0,1.23.55h0.95a1.5,1.5,0,0,0,1.23-.55,2.39,2.39,0,0,0,.45-1.54V81.62h0Z" transform="translate(-11 -78.55)"/><path class="cls-2" d="M17.18,87.59V86.95a0.17,0.17,0,0,0-.16-0.2h0a0.56,0.56,0,0,1-.18-0.14A1.07,1.07,0,0,1,16.66,86V82.75a1.5,1.5,0,0,0-.55-1.23,2.39,2.39,0,0,0-1.54-.45H12.74a0.17,0.17,0,0,0-.18.21v0.64a0.16,0.16,0,0,0,.18.2h1.93a0.79,0.79,0,0,1,1,.78v0.57H14a1.74,1.74,0,0,0-1.27.44,1.67,1.67,0,0,0-.45,1.25V86a1.67,1.67,0,0,0,.45,1.24,1.42,1.42,0,0,0,1.14.45h1a1.15,1.15,0,0,0,1.07-.48,1.66,1.66,0,0,0,.14.21,1.32,1.32,0,0,0,1,.39h0a0.17,0.17,0,0,0,.16-0.21h0Zm-1.55-1.75a0.89,0.89,0,0,1-1,1H14.07A0.77,0.77,0,0,1,13.21,86V85.14a0.77,0.77,0,0,1,.86-0.89H15.5a0.11,0.11,0,0,1,.13.12v1.48h0Z" transform="translate(-11 -78.55)"/><path class="cls-3" d="M45.38,81.08l-0.68,0c-0.12,0-.19,0-0.21.11L43.5,86s-0.09.69-.51,0.67H42.9A0.79,0.79,0,0,1,42.47,86l-1-4.81c0-.1-0.09-0.11-0.21-0.11l-0.68,0a0.14,0.14,0,0,0-.13.19l1.14,5.24a1.74,1.74,0,0,0,1.31,1.23H43a1.68,1.68,0,0,0,1.37-1.23l1.14-5.22a0.14,0.14,0,0,0-.13-0.19h0Z" transform="translate(-11 -78.55)"/></svg>