<?xml version="1.0" encoding="utf-8"?>
<!-- Generator: Adobe Illustrator 21.0.0, SVG Export Plug-In . SVG Version: 6.00 Build 0)  -->
<svg version="1.1" id="Layer_1" xmlns="http://www.w3.org/2000/svg" xmlns:xlink="http://www.w3.org/1999/xlink" x="0px" y="0px"
	 viewBox="0 0 114 40" style="enable-background:new 0 0 114 40;" xml:space="preserve">
<style type="text/css">
	.st0{fill:#191919;}
	.st1{fill:#1AFC95;}
</style>
<title>logo copy</title>
<desc>Created with Sketch.</desc>
<g id="Page-1">
	<g id="Landing-Page" transform="translate(-83.000000, -30.000000)">
		<g id="Top-Navigation" transform="translate(82.000000, 29.000000)">
			<g id="logo-copy" transform="translate(1.000000, 0.000000)">
				<g id="Layer_1_1_">
					<g>
						<g id="Shape" transform="translate(0.080002, 0.692308)">
							<path class="st0" d="M20.2,21.6c0,6.1-3,10.7-8,10.7c-2.2,0-4-0.9-5.2-2.5l-0.3,1.7H0.2V3.7L7.5,3v10.3
								c1.1-1.5,3.2-2.5,5-2.5C17.8,10.8,20.2,14.9,20.2,21.6z M12.6,21.6c0-4.7-1-5.5-2.3-5.5c-1,0-1.9,0.5-2.7,1.9v7.5
								C8.2,26.6,9,27,10,27C11.5,27,12.6,25.8,12.6,21.6z"/>
							<path class="st0" d="M34.1,31.5l-0.3-2.2c-1.4,2-3.4,2.9-5.9,2.9c-3.9,0-5.6-2.5-5.6-6.3V11.6h7.4V25c0,1.6,0.5,2,1.2,2
								c0.7,0,1.5-0.5,2.2-1.7V11.6h7.4v20H34.1z"/>
							<path class="st0" d="M63,31.5h-6.6l-0.3-2c-1,1.4-2.8,2.8-5.7,2.8c-5.2,0-7.6-4.3-7.6-10.8c0-6.2,3.2-10.6,8.5-10.6
								c1.5,0,3,0.6,4.2,1.6V3L63,3.7V31.5L63,31.5z M55.7,25.2v-8c-0.7-0.7-1.3-1.1-2.2-1.1c-1.7,0-2.9,1.4-2.9,5.4
								c0,4.8,1.2,5.5,2.6,5.5C54.1,27,54.9,26.5,55.7,25.2z"/>
							<path class="st0" d="M80.2,13.8c2.6,1.1,3.9,2.5,3.9,5.2c0,3.8-3.4,6.6-8.8,6.6c-0.8,0-1.5,0-2.1-0.1
								c-0.3,0.2-0.5,0.4-0.5,0.7c0,0.4,0.1,0.9,2,0.9h2.9c5,0,8.1,2.5,8.1,6c0,4.2-3.8,6.9-11.1,6.9c-8.2,0-10.1-2.8-10.1-6.7H71
								c0,1.5,0.6,2,3.7,2c3,0,3.4-0.9,3.4-1.7c0-0.7-0.5-1.5-2.1-1.5h-2.8c-4.8,0-6.7-1.8-6.7-4c0-1.6,1.1-3.2,2.5-4
								c-2.7-1.5-3.7-3.3-3.7-5.8c0-4.8,3.7-7.5,9.4-7.5c4.2,0.2,7.1-1.4,9.6-3.1l1.6,5.2C84.7,13.5,82.8,13.8,80.2,13.8z
								 M72.7,18.2c0,1.9,1,2.7,2.3,2.7c1.5,0,2.3-0.9,2.3-2.8c0-1.8-0.7-2.5-2.3-2.5C73.7,15.6,72.7,16.5,72.7,18.2z"/>
							<polygon class="st0" points="87.9,31.5 87.9,11.6 95.3,11.6 95.3,31.5 							"/>
							<path class="st0" d="M107.2,32.3c-5,0-7.3-2.8-7.3-8.1v-7.6h-2.4v-5h2.4V7.4l7.4-0.8v5h4.5l-0.7,5h-3.7v7.5
								c0,1.9,0.7,2.4,1.6,2.4c0.6,0,1.2-0.2,1.9-0.5l2.4,4.6C111.5,31.7,109,32.3,107.2,32.3z"/>
							<path id="Shape_3_" class="st1" d="M95.7,4.5c0,2.2-1.7,4-4.2,4c-2.4,0-4.2-1.7-4.2-4s1.7-4,4.2-4C94,0.6,95.7,2.3,95.7,4.5z
								"/>
						</g>
					</g>
				</g>
			</g>
		</g>
	</g>
</g>
</svg>
