<?xml version="1.0" encoding="utf-8"?>
<!-- Generator: Adobe Illustrator 21.0.0, SVG Export Plug-In . SVG Version: 6.00 Build 0)  -->
<svg version="1.1" id="Layer_2" xmlns="http://www.w3.org/2000/svg" xmlns:xlink="http://www.w3.org/1999/xlink" x="0px" y="0px"
	 viewBox="0 0 300 85" style="enable-background:new 0 0 300 85;" xml:space="preserve">
<style type="text/css">
	.st0{fill:#303030;}
	.st1{fill:#1AFC95;}
	.st2{fill:url(#SVGID_1_);}
	.st3{fill:url(#SVGID_2_);}
	.st4{fill:#C27DFF;}
	.st5{opacity:0.85;fill:#231F20;enable-background:new    ;}
	.st6{opacity:0.45;fill:#231F20;enable-background:new    ;}
	.st7{fill:#20D37E;}
</style>
<g>
	<g>
		<g>
			<path class="st0" d="M132.7,44.1c1.8,1.6,2.7,3.9,2.7,7c0,4.8-1.8,8.2-5.3,10.1c-3.5,1.9-8.5,2.9-14.9,2.9H99.8V20.2h13.7
				c6.5,0,11.5,0.9,14.9,2.6s5.1,4.7,5.1,8.7c0,2.6-0.8,4.7-2.3,6.2s-3.4,2.5-5.7,3.1C128.6,41.5,130.9,42.6,132.7,44.1z
				 M112.8,29.1v8.1h2.2c2,0,3.4-0.3,4.2-1c0.8-0.7,1.2-1.8,1.2-3.3c0-1.3-0.4-2.3-1.3-2.9s-2.3-0.9-4.4-0.9
				C114.7,29.1,112.8,29.1,112.8,29.1z M120.4,54c1.1-0.7,1.7-1.9,1.7-3.7c0-1.7-0.5-2.9-1.5-3.7s-2.6-1.2-4.6-1.2h-3V55h2.5
				C117.6,55,119.2,54.7,120.4,54z"/>
			<path class="st0" d="M169.4,64.2h-10.9l-0.4-3.7c-2.3,3.3-5.6,4.9-10,4.9c-3.2,0-5.5-0.9-7.1-2.8c-1.6-1.9-2.3-4.5-2.3-7.9V30.5
				h12.5v22.6c0,1.2,0.2,2.1,0.5,2.6c0.4,0.5,0.9,0.7,1.5,0.7s1.2-0.2,1.9-0.7s1.3-1.2,1.8-2.1V30.5h12.5V64.2z"/>
			<path class="st0" d="M207.4,17.2v46.9h-11.1l-0.4-3.5c-2.4,3.2-5.6,4.7-9.5,4.7c-4.2,0-7.4-1.6-9.6-4.9
				c-2.1-3.2-3.2-7.7-3.2-13.4c0-3.4,0.6-6.5,1.8-9.2s2.8-4.8,5-6.4c2.1-1.5,4.6-2.3,7.3-2.3c2.9,0,5.3,0.9,7.3,2.6V16L207.4,17.2z
				 M194.9,53.5V40c-0.6-0.6-1.2-1.1-1.8-1.4c-0.6-0.3-1.2-0.5-2-0.5c-1.5,0-2.7,0.7-3.5,2.2c-0.9,1.5-1.3,3.8-1.3,7
				c0,3.7,0.4,6.2,1.1,7.4c0.7,1.2,1.8,1.8,3.1,1.8C192.3,56.5,193.7,55.5,194.9,53.5z"/>
			<path class="st0" d="M246,32.7c-2.2,1-5.4,1.5-9.6,1.5c2.3,1,3.9,2.1,5,3.4s1.6,3.1,1.6,5.4c0,2.1-0.6,4-1.8,5.7s-3,3-5.2,4
				c-2.3,0.9-4.9,1.4-7.9,1.4c-1.6,0-2.8-0.1-3.6-0.2c-0.5,0.3-0.8,0.7-0.8,1.2s0.2,0.8,0.6,1.1c0.4,0.3,1.3,0.4,2.6,0.4h4.9
				c2.8,0,5.2,0.4,7.3,1.3c2.1,0.8,3.6,2,4.8,3.6c1.1,1.5,1.7,3.3,1.7,5.2c0,3.6-1.6,6.5-4.8,8.5c-3.2,2.1-7.8,3.1-13.8,3.1
				c-4.4,0-7.9-0.5-10.4-1.4s-4.2-2.2-5.2-3.8c-1-1.6-1.5-3.6-1.5-6h11.2c0,0.9,0.2,1.6,0.5,2c0.3,0.5,0.9,0.8,1.8,1
				c0.9,0.2,2.2,0.3,4,0.3c2.3,0,3.8-0.3,4.6-0.8s1.2-1.2,1.2-2.1c0-0.7-0.3-1.3-0.9-1.8c-0.6-0.5-1.5-0.7-2.7-0.7h-4.7
				c-3.9,0-6.7-0.6-8.6-1.9c-1.9-1.2-2.8-2.9-2.8-4.9c0-1.3,0.4-2.6,1.2-3.8s1.8-2.2,3.1-3c-2.3-1.2-3.9-2.6-4.9-4.2
				c-1-1.6-1.5-3.4-1.5-5.7c0-4,1.4-7.1,4.3-9.3c2.9-2.2,6.7-3.3,11.5-3.3c3.2,0.1,6.1-0.3,8.6-1.2c2.5-0.9,5.1-2.3,7.5-3.9
				L246,32.7z M224.7,38.4c-0.7,0.8-1.1,1.8-1.1,3.2c0,1.5,0.4,2.7,1.1,3.4c0.7,0.8,1.6,1.2,2.8,1.2c2.6,0,3.8-1.6,3.8-4.8
				c0-1.5-0.3-2.5-0.9-3.2c-0.6-0.7-1.6-1-2.9-1C226.3,37.3,225.4,37.7,224.7,38.4z"/>
			<path class="st0" d="M261.1,30.5v33.7h-12.5V30.5H261.1z"/>
			<path class="st0" d="M290,62.5c-1.3,0.9-2.9,1.6-4.8,2.1s-3.6,0.8-5.3,0.8c-4.2,0-7.2-1.2-9.2-3.5c-2-2.3-3-5.7-3-10.2V38.9h-4
				v-8.5h4v-7.1l12.5-1.5v8.5h7.6l-1.3,8.5h-6.3v12.7c0,1.5,0.2,2.5,0.7,3.1s1.1,0.9,2,0.9c1.1,0,2.1-0.3,3.2-0.9L290,62.5z"/>
		</g>
		<path class="st1" d="M259.9,13.8c1.3,1.3,2,2.9,2,4.8s-0.7,3.5-2,4.8c-1.3,1.3-3,1.9-5,1.9s-3.7-0.6-5-1.9s-2-2.9-2-4.8
			s0.7-3.5,2-4.8s3-1.9,5-1.9C256.9,11.9,258.6,12.5,259.9,13.8z"/>
	</g>
</g>
<g>
	<g>
		
			<linearGradient id="SVGID_1_" gradientUnits="userSpaceOnUse" x1="10.95" y1="32.3453" x2="82.6094" y2="32.3453" gradientTransform="matrix(1 0 0 -1 0 86)">
			<stop  offset="0" style="stop-color:#15CBFC"/>
			<stop  offset="0.5" style="stop-color:#4A90E2"/>
			<stop  offset="1" style="stop-color:#4A90E2"/>
		</linearGradient>
		<path class="st2" d="M64.3,66c0.3,2-1.2,4-4.4,5.8c-5,2.9-10.3,3.8-15.9,2.9c-5.6-1-11.8-3.4-18.5-7.2l-13.7-7.9
			c-1-0.6-1-2.1,0-2.7L54,32.5c0.5-0.3,1.1-0.3,1.5,0L69,40.3c6.8,3.9,11,7.4,12.8,10.5c2.2,4-0.4,7.4-7.9,10.2
			c-0.1,0-0.3,0.1-0.4,0.1c-3,0.4-5.9,0.3-8.7-0.1c-1.3-0.2-2.2,1.2-1.5,2.3C63.9,64.2,64.2,65.1,64.3,66z"/>
	</g>
	<g>
		
			<linearGradient id="SVGID_2_" gradientUnits="userSpaceOnUse" x1="10.95" y1="39.5453" x2="82.6094" y2="39.5453" gradientTransform="matrix(1 0 0 -1 0 86)">
			<stop  offset="0" style="stop-color:#FFF7A9"/>
			<stop  offset="0.5" style="stop-color:#FFF100"/>
			<stop  offset="1" style="stop-color:#FFD700"/>
		</linearGradient>
		<path class="st3" d="M64.3,58.8c0.3,2-1.2,4-4.4,5.8c-5,2.9-10.3,3.8-15.9,2.9c-5.6-1-11.8-3.4-18.5-7.2l-13.7-7.9
			c-1-0.6-1-2.1,0-2.7L54,25.3c0.5-0.3,1.1-0.3,1.5,0L69,33.1c6.8,3.9,11,7.4,12.8,10.5c2.2,4-0.4,7.4-7.9,10.2
			c-0.1,0-0.3,0.1-0.4,0.1c-3,0.4-5.9,0.3-8.7-0.1c-1.3-0.2-2.2,1.2-1.5,2.3C63.9,57,64.2,57.9,64.3,58.8z"/>
	</g>
	<g>
		<path class="st4" d="M64.3,51.6c0.3,2-1.2,4-4.4,5.8c-5,2.9-10.3,3.8-15.9,2.9c-5.6-1-11.8-3.4-18.5-7.2l-13.7-7.9
			c-1-0.6-1-2.1,0-2.7L54,18.1c0.5-0.3,1.1-0.3,1.5,0L69,25.9c6.8,3.9,11,7.4,12.8,10.5c2.2,4-0.4,7.4-7.9,10.2
			c-0.1,0-0.3,0.1-0.4,0.1c-3,0.4-5.9,0.3-8.7-0.1c-1.3-0.2-2.2,1.2-1.5,2.3C63.9,49.8,64.2,50.7,64.3,51.6z"/>
	</g>
	<g>
		<g>
			<polygon class="st5" points="59.1,37.1 59.1,29.7 31.7,45.1 38.1,48.9 			"/>
		</g>
		<polygon class="st6" points="65.5,33.4 59.1,29.7 59.1,37.1 		"/>
	</g>
	<g>
		<path class="st7" d="M53.8,10.7l0.8-0.4l-2.4-0.7c-0.5-0.3-1.1-0.5-1.8-0.5L50.2,9l0,0c-1.5-0.2-3.2,0.2-5,1.3
			c-6,3.5-11,12.9-11,20.9c0,5.2,2,8.6,5.1,9.4l2.2,0.7l-0.1-0.6c1.2-0.1,2.4-0.5,3.8-1.3c6-3.5,11-12.9,11-20.9
			C56.3,15,55.3,12.3,53.8,10.7z"/>
		<path class="st1" d="M59.2,19.5c0-8.1-4.9-11.8-11-8.3s-11,12.9-11,20.9s4.9,11.8,11,8.3S59.2,27.5,59.2,19.5z"/>
	</g>
</g>
</svg>
