<?xml version="1.0" encoding="UTF-8"?>
<svg width="140px" height="53px" viewBox="0 0 140 53" version="1.1" xmlns="http://www.w3.org/2000/svg" xmlns:xlink="http://www.w3.org/1999/xlink">
    <!-- Generator: Sketch 41.1 (35376) - http://www.bohemiancoding.com/sketch -->
    <title>Copart-Logo</title>
    <desc>Created with Sketch.</desc>
    <defs>
        <polygon id="path-1" points="0.230013089 52.2805086 115.822084 52.2805086 115.822084 0.00454782602 58.0260486 0.00454782602 0.230013089 0.00454782602"></polygon>
    </defs>
    <g id="Documents" stroke="none" stroke-width="1" fill="none" fill-rule="evenodd">
        <g transform="translate(-10.000000, -24.000000)" id="Header">
            <g>
                <g id="Copart-Logo" transform="translate(10.000000, 24.000000)">
                    <g id="Copart-Logo-RGB">
                        <g id="Group-5" transform="translate(24.038509, 0.000000)">
                            <mask id="mask-2" fill="white">
                                <use xlink:href="#path-1"></use>
                            </mask>
                            <g id="Clip-2"></g>
                            <path d="M114.39829,26.1383052 C107.38002,40.5594615 76.338833,52.2999992 45.3005701,52.2999992 C14.2311222,52.2999992 -5.36286141,40.5594615 1.65475898,26.1383052 C8.64444273,11.773347 39.7125913,0.00454782602 70.7541027,0.00454782602 C101.822251,0.00454782602 121.412986,11.773347 114.39829,26.1383052 Z" id="Fill-1" fill="#032B76" mask="url(#mask-2)"></path>
                            <path d="M70.0563362,0.561656514 C100.243506,0.561656514 119.242699,11.967929 112.376456,25.9141624 C105.538475,39.8896317 75.3240182,51.2968788 45.1966198,51.2968788 C15.0107495,51.2968788 -3.99006764,39.8896317 2.84726393,25.9141624 C7.28561729,16.9231103 21.3429475,9.03263217 38.8348609,4.50657074 C40.0767423,4.16873224 41.3501336,3.8945633 42.6225503,3.58758504 C51.3225415,1.6628801 60.7047066,0.561656514 70.0563362,0.561656514" id="Fill-3" fill="#0A0A08" mask="url(#mask-2)"></path>
                            <path d="M69.6031779,1.32016892 C99.4096296,1.32016892 118.208393,12.3285067 111.476311,25.7666829 C104.74358,39.2568342 74.9631157,50.2411334 45.1842757,50.2411334 C15.3768495,50.2411334 -3.42158939,39.2568342 3.31179188,25.7666829 C10.0175613,12.3285067 39.8233634,1.32016892 69.6031779,1.32016892" id="Fill-4" fill="#969998" mask="url(#mask-2)"></path>
                        </g>
                        <path d="M88.890508,3.61682107 C115.81916,3.61682107 132.768258,13.4631892 126.642986,25.5025841 C120.543052,37.5673168 93.589062,47.4146596 66.7136841,47.4146596 C39.7856814,47.4146596 22.835609,37.5673168 28.9348934,25.5025841 C32.8944256,17.7410693 45.4344062,10.9290756 61.0383221,7.02249307 C62.1463674,6.73078251 63.2823494,6.49397071 64.4173568,6.22954711 C72.1785468,4.5673167 80.547846,3.61682107 88.890508,3.61682107" id="Fill-6" fill="#0A0A08"></path>
                        <g id="Group-10" transform="translate(0.000000, 6.172050)">
                            <path d="M122.223799,9.45525514 C123.516031,11.6015042 123.754792,14.0170495 122.731856,16.5495389 C121.773564,18.4664476 120.674614,20.0097848 119.036747,21.528109 C110.540759,29.3776567 91.4226726,35.232333 72.3299244,35.232333 C49.8181856,35.232333 35.6221467,27.0972468 40.7507951,17.1238643 C44.2747105,10.2582713 56.2163271,4.01670491 70.5169661,0.932304334 C72.1993368,0.570102476 73.9086697,0.28521366 75.6439902,0.0256627325 C72.2795735,0.363176392 68.9875971,0.854666447 65.7508444,1.55373228 C49.8961483,5.05198502 36.4514752,10.7000601 32.5383958,18.5229705 C26.8659574,29.8961089 42.589741,39.1697758 67.5641276,39.1697758 C88.0267459,39.1697758 108.519575,32.9532225 118.363344,24.4289723 C119.474963,23.4723046 120.775966,22.1206258 121.796953,20.6805891 C122.218601,20.0978177 122.58795,19.5078997 122.896552,18.9124594 C124.65851,15.4921693 124.321971,12.2537924 122.223799,9.45525514" id="Fill-7" fill="#0D5DB8"></path>
                            <path d="M15.6068395,17.5393407 C15.1296426,18.2894072 14.6508215,18.8432674 14.1836948,19.1859786 L14.1651787,19.1999469 C13.6259364,19.6238693 12.919724,19.8392413 12.0660321,19.8392413 C11.5115222,19.8392413 11.1308042,19.7284693 11.02458,19.5403842 C11.0135352,19.5121227 10.7634048,18.8228022 11.5355607,16.3354662 C12.0462166,14.7599693 12.6413321,13.6343824 13.3043402,12.9898905 C14.1274967,12.1660843 15.0107495,11.7824427 16.0840364,11.7824427 C16.4212252,11.7824427 16.7012414,11.8344178 16.8717848,11.9286228 C16.9994488,12.0007383 17.1004755,12.0575862 17.1404314,12.5214644 L17.2963569,14.3373464 L25.8553655,14.3373464 C25.3180723,15.0490811 24.858417,15.8163644 24.4893934,16.6197053 L16.19156,16.6197053 L15.6068395,17.5393407 L15.6068395,17.5393407 Z M36.3546715,18.0672134 C36.0353492,19.0836525 35.6237709,19.8220246 35.1647653,20.2007935 C34.6953647,20.5766388 34.3010032,20.7442587 33.8855268,20.7442587 C33.799443,20.7442587 33.7445442,20.7364624 33.7123846,20.7293158 C33.6941933,20.6172444 33.6669063,20.21866 33.9524448,19.3081202 C34.2249896,18.3806886 34.6258479,17.6767501 35.1101914,17.2723184 C35.5539293,16.917588 35.9648579,16.7590637 36.4420547,16.7590637 C36.4998771,16.7590637 36.5414572,16.7623122 36.5703684,16.7662103 C36.5875852,16.8922501 36.5992796,17.266796 36.3546715,18.0672134 L36.3546715,18.0672134 Z M56.7932513,18.0467482 C56.530452,18.944619 56.1773458,19.6137991 55.7989017,19.9314972 C55.4902992,20.1916978 55.2294489,20.3177376 55.0017327,20.3177376 C54.9786688,20.3177376 54.9578787,20.3170879 54.9390377,20.3164382 C54.9439104,20.1598631 54.9796433,19.8457382 55.1423905,19.321114 C55.4954967,18.1708389 55.8940812,17.6773997 56.1669507,17.4652761 C56.4788017,17.2109227 56.7467986,17.0777364 57.0284389,17.0384302 C57.0118718,17.2284643 56.9572979,17.5448631 56.7997482,18.026283 L56.7932513,18.0467482 L56.7932513,18.0467482 Z M116.933703,9.11514272 L119.203393,1.83992047 L107.537244,6.67880736 L107.239037,6.80289804 L106.518856,9.11514272 L104.205962,9.11514272 L104.111107,9.41822284 C103.135274,8.98163155 102.172434,8.7691831 101.168989,8.7691831 C100.382215,8.7691831 99.6350718,8.88547751 98.9480253,9.11514272 L89.8107931,9.11514272 L88.0816447,14.6381526 C88.0839186,14.4123855 88.0777465,14.1814209 88.0624788,13.9475327 C87.9802931,12.7485309 87.5589695,11.6862886 86.8767956,10.9586365 C86.0270019,9.98767563 84.8283248,9.36169986 83.3145485,9.09727626 C82.1925348,8.87345826 80.6706373,8.7691831 78.5243883,8.7691831 C77.2688635,8.7691831 76.0831803,8.85429242 74.8994461,9.03003341 C73.5610859,9.23663465 72.5794052,9.50787999 71.8111474,9.88242594 C70.671917,10.3768396 69.7272685,10.9778023 69.0054636,11.6680973 C68.3690928,12.24827 67.7876208,12.9872917 67.2292127,13.9241439 C67.1148673,13.3371495 66.9394512,12.7722445 66.7068624,12.2424228 C65.9668661,10.6578303 64.3007376,8.7691831 60.5640488,8.7691831 C59.641165,8.7691831 58.7699314,8.88515267 57.9042203,9.12391353 L57.9071439,9.11514272 L47.9272645,9.11514272 L46.4908012,13.7045489 C46.3241558,13.2296259 46.1048857,12.7686712 45.8381882,12.3324048 C44.3348068,9.9678601 41.558359,8.7691831 37.5861578,8.7691831 C34.3279653,8.7691831 31.4280766,9.64204085 28.9673778,11.3640427 C28.5138946,11.6830402 28.0795772,12.0251017 27.6757952,12.3811315 L27.6757952,12.3518955 C27.6757952,8.96668869 26.7564847,6.57193344 24.8662133,5.03119496 C23.2189257,3.62526703 20.7903867,2.94179375 17.4415625,2.94179375 C13.4462973,2.94179375 9.92952843,4.01832913 6.98838437,6.14248873 C4.06348255,8.27314522 1.98285214,11.3088191 0.804965206,15.1640762 C-0.148454035,18.174737 -0.255327947,20.7588767 0.486942229,22.846004 C1.28216209,25.0257121 2.59810804,26.5791195 4.39774776,27.4613977 C6.0151496,28.2702611 8.219221,28.6798903 10.9485663,28.6798903 C13.218906,28.6798903 15.2053315,28.3612176 16.8516445,27.7319934 C18.5132252,27.1287567 20.086773,26.1863822 21.5294084,24.9305326 C22.1875438,24.3386655 22.9112978,23.5548152 23.5736562,22.7170407 C23.9261127,24.3555574 24.785327,25.5139537 25.4502841,26.2013251 C27.0764567,27.8281474 29.4939511,28.653253 32.6361741,28.653253 C35.9378957,28.653253 38.8725429,27.7719493 41.3579298,26.0327307 C41.9741603,25.6013369 42.5504348,25.1273885 43.0731099,24.6219301 L40.1115007,34.0827076 L50.5510353,34.0827076 L52.4429309,28.0760039 C53.3534707,28.4593207 54.4017445,28.653253 55.5601408,28.653253 C57.9909538,28.653253 60.2655165,27.8398418 62.3204842,26.2347841 C62.9074786,25.7741543 63.4597146,25.243358 63.9635488,24.6563636 C64.1490351,25.412927 64.5187084,26.1019226 65.0621736,26.7051592 C66.20985,28.0159077 68.0111139,28.653253 70.5686164,28.653253 C72.255535,28.653253 73.836879,28.4008487 75.2691194,27.9025369 C75.504307,27.8193766 75.7450169,27.7241971 75.985402,27.6195971 L76.2147424,28.3063188 L94.2189359,28.3063188 L96.2518141,21.8071506 C97.0983595,19.1171115 97.8737638,18.0425252 98.2587048,17.643291 C98.6309768,17.3106501 98.8801327,17.264847 99.0938805,17.264847 C99.1182439,17.264847 99.3495333,17.2719935 99.9131389,17.5208246 L101.317118,18.141278 L101.984349,17.3372873 L103.947061,17.34216 L103.085248,20.0961935 C102.411844,22.147263 102.184778,23.6100388 102.370914,24.6989183 C102.565496,26.0307816 103.283403,27.1333046 104.392423,27.8024847 C105.339345,28.3829822 106.708566,28.653253 108.700838,28.653253 C110.154843,28.653253 111.777442,28.4801108 113.524782,28.1383741 L114.373277,27.9723785 L114.824811,27.883371 L116.572475,19.3110438 L113.445195,20.2284053 L114.340792,17.3441091 L117.769853,17.3441091 L120.339699,9.11514272 L116.933703,9.11514272 L116.933703,9.11514272 Z" id="Fill-9" fill="#FFFFFF"></path>
                        </g>
                        <path d="M16.4816463,23.3193028 L16.0522016,23.9946549 C15.5395967,24.799945 15.0162718,25.4022071 14.4913228,25.7871481 C13.8572259,26.2857847 13.0408911,26.5391636 12.0660321,26.5391636 C11.2821818,26.5391636 10.7760738,26.3465307 10.5616762,25.965163 C10.4908601,25.8420468 10.1812831,25.0887319 11.030752,22.3528897 C11.5699942,20.6893599 12.2109129,19.488409 12.9375905,18.7821966 C13.8487799,17.8700327 14.8782128,17.4266196 16.0840364,17.4266196 C16.5216022,17.4266196 16.8727594,17.4980855 17.1264631,17.6380935 C17.427919,17.8079873 17.6127556,18.0275823 17.666355,18.6483606 L17.7807004,19.9815233 L26.9773791,19.9815233 C26.069763,20.9839941 25.352181,22.0998357 24.8327543,23.3193028 L16.4816463,23.3193028 L16.4816463,23.3193028 Z M36.8598051,24.3922649 C36.5034504,25.5259729 36.046069,26.3296387 35.502279,26.7785741 C34.935425,27.2323822 34.4218455,27.444181 33.8855268,27.444181 C33.4093045,27.444181 33.3118511,27.2775356 33.2465573,27.1654642 C33.2212194,27.1235592 33.0123442,26.7149046 33.4489355,25.3203462 C33.7536399,24.285391 34.199002,23.5177829 34.770079,23.0409108 C35.3135442,22.6059438 35.8446653,22.4032407 36.4420547,22.4032407 C36.8812448,22.4032407 36.9575833,22.5335034 37.0410684,22.6754605 C37.0504889,22.6904034 37.26781,23.0584525 36.8598051,24.3922649 L36.8598051,24.3922649 Z M54.6379067,25.3365885 C54.9494327,24.3230729 55.3658837,23.5915226 55.8453545,23.2189257 C56.3037104,22.8447046 56.7370532,22.6699382 57.2097023,22.6699382 C57.4520364,22.6699382 57.4682787,22.699499 57.524152,22.8011754 C57.572229,22.8830363 57.6339495,23.3456152 57.3000091,24.366927 C57.0037507,25.3781686 56.6022427,26.1188145 56.1383644,26.5079785 C55.7310091,26.8510145 55.3590619,27.0176599 55.0017327,27.0176599 C54.5700141,27.0176599 54.4978986,26.8971425 54.4504713,26.8182052 C54.448847,26.8146319 54.2841508,26.4800418 54.6379067,25.3365885 L54.6379067,25.3365885 Z M66.383317,25.0776872 C66.5954406,24.325022 66.739022,23.5911978 66.8117872,22.8892084 L69.582063,23.170199 C68.5747195,23.5122605 67.7554611,23.9345587 67.0927779,24.4517114 C66.8419978,24.6459686 66.605186,24.8554934 66.383317,25.0776872 L66.383317,25.0776872 Z M117.381988,22.988286 L119.621793,15.815065 L116.216121,15.815065 L118.363344,8.9319303 L107.669131,13.3676849 L106.907695,15.815065 L104.593826,15.815065 L104.430754,16.3354662 C103.341875,15.7526948 102.272811,15.4691054 101.168989,15.4691054 C100.406903,15.4691054 99.6906203,15.5853998 99.0357333,15.815065 L90.1986577,15.815065 L84.9595621,32.5510647 L84.9108354,32.2554561 C84.7938913,31.5485939 84.7821969,31.1967871 84.7925919,31.0278679 C84.804936,30.8505027 84.8695801,30.4723834 85.1034683,29.6820362 L87.1996913,22.9730183 C87.4923764,22.0897655 87.6021739,21.1678562 87.5355807,20.1540159 C87.4615161,19.0716333 87.0879447,18.1227618 86.4876317,17.4870407 C85.7187242,16.6047625 84.6200994,16.0333606 83.2265156,15.7900519 C82.1285404,15.5711066 80.6345796,15.4691054 78.5243883,15.4691054 C77.294851,15.4691054 76.1345057,15.5522656 74.9767592,15.7247582 C73.6877753,15.9235631 72.7505983,16.181165 72.0352903,16.532647 C70.9470605,17.003347 70.0501642,17.5718252 69.3722133,18.2198904 C68.6500835,18.8790003 67.9951965,19.7612786 67.3698704,20.9174009 L66.8644121,21.8516543 C66.8653866,20.6802643 66.6506642,19.5982065 66.2221941,18.6243221 C65.5500903,17.1849352 64.0226705,15.4691054 60.5640488,15.4691054 C59.3585501,15.4691054 58.2193196,15.6825283 57.0966563,16.1197693 L57.1908613,15.815065 L48.3151291,15.815065 L46.3663857,22.0400643 C46.3166844,20.8553556 45.9889161,19.7622531 45.386654,18.7782985 C43.9904714,16.5823482 41.3660509,15.4691054 37.5861578,15.4691054 C34.4384125,15.4691054 31.640525,16.3098035 29.2698083,17.9687855 C28.4788114,18.5255693 27.7709748,19.1356277 27.1479226,19.7970115 L27.1479226,18.5239451 C27.1479226,15.3073327 26.2919568,13.0464135 24.5348717,11.6135234 C22.97984,10.2865328 20.6594742,9.64171601 17.4415625,9.64171601 C13.5596681,9.64171601 10.1465247,10.6847924 7.29698685,12.7423588 C4.46791422,14.8038234 2.45355214,17.7472414 1.31009874,21.4894525 C0.391113038,24.3912903 0.281315524,26.8649828 0.984604333,28.8419878 C1.7304478,30.8862356 2.95706145,32.3389411 4.6290372,33.1591741 C6.17594774,33.9319796 8.3020564,34.3240672 10.9485663,34.3240672 C13.1539371,34.3240672 15.0770178,34.0167641 16.6619352,33.4119032 C18.268942,32.8278324 19.7898649,31.9169679 21.1844233,30.703348 C22.1108804,29.8701213 23.1344661,28.6785909 23.9391065,27.5062263 C23.9992028,29.6550741 24.9795841,31.12792 25.8310021,32.0079244 C27.3496512,33.5268983 29.6394816,34.2974299 32.6361741,34.2974299 C35.8277734,34.2974299 38.6604193,33.447961 41.0554994,31.7720871 C42.3928851,30.8355598 43.5009304,29.7203679 44.3617689,28.4450275 L40.8297323,39.7268845 L50.1638204,39.7268845 L52.1193856,33.519102 C52.2369794,33.5791983 52.3571719,33.6353964 52.4770396,33.686397 C53.3606172,34.0921281 54.3978464,34.2974299 55.5601408,34.2974299 C57.8704364,34.2974299 60.0355265,33.5217008 61.9959643,31.9907076 C62.8840898,31.293266 63.6773606,30.4392492 64.3608338,29.4458741 C64.2922916,30.8885095 64.8932543,31.9013753 65.4532866,32.5228033 C66.4989618,33.7169324 68.1722369,34.2974299 70.5686164,34.2974299 C72.1960884,34.2974299 73.7192853,34.0547709 75.096302,33.5759498 C75.4861157,33.4378908 75.8895728,33.2663728 76.2985523,33.0643194 L76.5948107,33.9504958 L93.8310713,33.9504958 L95.7476551,27.8223002 C96.5906272,25.1449301 97.381624,23.9559984 97.8903309,23.4368966 C98.2931383,23.0717711 98.6647607,22.9090239 99.0938805,22.9090239 C99.1991302,22.9090239 99.5109812,22.9382599 100.126562,23.2098301 L101.16574,23.6694854 L101.737142,22.9811394 L104.664967,22.9876363 L103.589731,26.4241686 C102.940367,28.402148 102.719148,29.789235 102.891965,30.7861834 C103.061859,31.9630958 103.691408,32.9350312 104.664318,33.5226753 C105.52743,34.0515225 106.810242,34.2974299 108.700838,34.2974299 C110.120085,34.2974299 111.7089,34.1275361 113.423106,33.7922964 L114.377824,33.6055107 L115.880231,26.2360835 L113.558241,26.9176077 C113.225925,27.0147363 112.924794,27.0933487 112.659721,27.1505213 L113.951953,22.988286 L117.381988,22.988286 L117.381988,22.988286 Z" id="Fill-11" fill="#0A0A08"></path>
                        <path d="M23.8276847,24.7772058 C23.1097779,26.4264425 21.5391537,28.4222884 20.2092395,29.6193412 C18.98425,30.6851567 17.6270488,31.5096126 16.1639482,32.0417082 C14.7005228,32.5997914 12.9450619,32.866489 10.9485663,32.866489 C8.49988683,32.866489 6.6115645,32.5202045 5.28100054,31.8549225 C3.92412417,31.1896405 2.96550741,30.0185753 2.3544745,28.3423766 C1.76715525,26.6928151 1.87435401,24.5371456 2.69978443,21.9292922 C3.76462541,18.4453327 5.6003229,15.7819308 8.15522659,13.9208954 C10.7354682,12.0582358 13.8224675,11.0992942 17.4415625,11.0992942 C20.2615395,11.0992942 22.3106599,11.6320396 23.5882742,12.7228681 C25.3177475,14.1323694 25.6903443,16.4481873 25.6903443,18.5239451 L19.1187357,18.5239451 C19.0384991,17.5926153 18.6922146,16.8470966 17.8414463,16.3682755 C17.361001,16.1019029 16.7762805,15.9687165 16.0840364,15.9687165 C14.5140619,15.9687165 13.1035861,16.5537619 11.9062085,17.7517892 C11.0021657,18.6304941 10.2563222,20.0140078 9.64398992,21.902655 C8.92575825,24.2174984 8.79354646,25.8154096 9.29835514,26.6928151 C9.77782594,27.5455325 10.7094806,27.9967418 12.0660321,27.9967418 C13.3969209,27.9967418 14.5140619,27.6238201 15.3927669,26.9328754 C16.0840364,26.4264425 16.7226811,25.6559108 17.2820637,24.7772058 L23.8276847,24.7772058" id="Fill-12" fill="#FFFFFF"></path>
                        <path d="M38.2504653,24.8301555 C37.7986063,26.2675934 37.186274,27.278835 36.4137933,27.9161803 C35.6156498,28.5557996 34.7915187,28.9017592 33.8855268,28.9017592 C33.0084461,28.9017592 32.3694765,28.5557996 31.9972045,27.9161803 C31.5976455,27.2525226 31.6246076,26.2675934 32.050479,24.9084431 C32.4493883,23.5525413 33.0610709,22.5682618 33.8588896,21.902655 C34.6573579,21.2630357 35.5097504,20.9456624 36.4420547,20.9456624 C37.2918485,20.9456624 37.903856,21.2630357 38.2774274,21.902655 C38.6763367,22.5412997 38.6490497,23.5268785 38.2504653,24.8301555 L38.2504653,24.8301555 Z M44.1567919,19.5608494 C43.0399758,17.804414 40.8583187,16.9266836 37.5861578,16.9266836 C34.7372697,16.9266836 32.2356405,17.6728519 30.1085573,19.1616152 C27.9522381,20.6786401 26.5144754,22.594899 25.7968934,24.9084431 C24.9987499,27.4110468 25.371022,29.4341797 26.8620592,30.9771921 C28.0850996,32.2008821 30.0007089,32.8398517 32.6361741,32.8398517 C35.5614007,32.8398517 38.0906417,32.0676958 40.2193491,30.5779579 C42.3477317,29.0878952 43.7588571,27.1716362 44.5030764,24.8301555 C45.1683583,22.7547226 45.0358217,20.9982873 44.1567919,19.5608494 L44.1567919,19.5608494 Z" id="Fill-13" fill="#FFFFFF"></path>
                        <path d="M58.6991153,24.7772058 C58.3011805,26.1340822 57.7424476,27.0650872 57.0768408,27.6238201 C56.4118836,28.1832027 55.7206141,28.4758878 55.0017327,28.4758878 C54.1766272,28.4758878 53.5642949,28.1832027 53.2183352,27.5965331 C52.8460632,27.0124623 52.873675,26.1077698 53.2446477,24.9084431 C53.6445315,23.6067903 54.2032644,22.6478487 54.9227955,22.0900904 C55.6400526,21.5040705 56.3845967,21.2120351 57.2097023,21.2120351 C57.9285836,21.2120351 58.461329,21.4780829 58.7809762,22.0624786 C59.1249867,22.6478487 59.1002985,23.5525413 58.6991153,24.7772058 L58.6991153,24.7772058 Z M64.9013755,19.2412022 C64.1811947,17.6991643 62.7450562,16.9266836 60.5640488,16.9266836 C59.4722457,16.9266836 58.4077296,17.139132 57.3438631,17.5926153 C56.5717072,17.9112879 55.6400526,18.549283 54.5232365,19.5075749 L55.2141812,17.2726432 L49.386467,17.2726432 L42.8138838,38.2693063 L49.0947564,38.2693063 L51.3836123,31.0035045 C51.8085092,31.6158368 52.3942042,32.0676958 53.0857986,32.3610306 C53.7777178,32.6787287 54.6024986,32.8398517 55.5601408,32.8398517 C57.5290246,32.8398517 59.3929836,32.1735952 61.0954948,30.8443306 C62.824968,29.4868045 64.0756202,27.5708704 64.8734388,25.0422791 C65.5929699,22.7277605 65.5929699,20.8118264 64.9013755,19.2412022 L64.9013755,19.2412022 Z" id="Fill-14" fill="#FFFFFF"></path>
                        <path d="M78.5786374,26.1876816 C78.3379274,26.9062381 78.0436181,27.5175959 77.6450336,27.9704294 C77.2461243,28.4222884 76.7137038,28.7945604 76.0227591,29.1145325 C75.3305151,29.4341797 74.64022,29.5936785 73.9197144,29.5936785 C73.2560567,29.5936785 72.8022486,29.4341797 72.5644623,29.1408449 C72.2977648,28.8488095 72.2431909,28.4758878 72.4033393,28.0240288 C72.5111878,27.6238201 72.8022486,27.278835 73.2560567,26.958863 C73.6809536,26.6395406 74.5846716,26.3468555 75.9428473,26.0268835 C76.9544138,25.7877978 77.9110815,25.5480624 78.8683988,25.2557021 L78.5786374,26.1876816 L78.5786374,26.1876816 Z M86.0809261,20.2534183 C86.0283012,19.482237 85.7885658,18.8699047 85.3873826,18.4453327 C84.8305988,17.804414 84.0045187,17.4055047 82.9409771,17.2200184 C81.8777603,17.0072451 80.3854237,16.9266836 78.5243883,16.9266836 C77.3526734,16.9266836 76.2628194,17.0072451 75.1979784,17.1660942 C74.1594498,17.3252681 73.2807449,17.5393407 72.6437244,17.8586631 C71.7117449,18.2575724 70.9415381,18.7363935 70.3558431,19.2957761 C69.7441605,19.8541842 69.1851027,20.6250407 68.6523574,21.6109444 L74.4238734,22.1956649 C74.8789809,21.5307078 75.3305151,21.0785239 75.8103107,20.8384637 C76.422643,20.5454537 77.2207865,20.3862798 78.2580156,20.3862798 C79.0555094,20.3862798 79.5619423,20.5191413 79.8003783,20.8118264 C80.0154255,21.1045115 80.0154255,21.6109444 79.8003783,22.3291761 C78.9242721,22.594899 78.1235299,22.8343096 77.3799604,23.0210953 C76.6084542,23.1799444 75.0108678,23.500891 72.5371753,23.9514506 C70.4614176,24.2974102 68.9443928,24.8554934 67.9874003,25.6023114 C67.0300829,26.3468555 66.3641512,27.3057971 66.0178667,28.4495754 C65.6192823,29.7005524 65.8063928,30.736807 66.5499624,31.5622374 C67.2961307,32.4143051 68.6257201,32.8398517 70.5686164,32.8398517 C72.0300927,32.8398517 73.387294,32.6261039 74.6106592,32.2008821 C75.5166511,31.8812349 76.5025548,31.349789 77.5384846,30.6312325 C77.48521,31.0564542 77.4598722,31.3754517 77.4598722,31.5888747 C77.4598722,31.8029474 77.5111976,32.092384 77.6450336,32.4929175 L83.4720982,32.4929175 C83.3668485,31.8549225 83.3129243,31.3231517 83.3389118,30.9248921 C83.3668485,30.5246834 83.5000348,29.9653008 83.7118336,29.2477188 L85.8165025,22.5153121 C86.0536391,21.7964307 86.1335509,21.0518866 86.0809261,20.2534183 L86.0809261,20.2534183 Z" id="Fill-15" fill="#FFFFFF"></path>
                        <path d="M91.2696707,17.2726432 L97.0970601,17.2726432 L96.3255539,19.7466606 C97.2308961,18.6827941 98.055352,17.93825 98.7745582,17.5393407 C99.4921402,17.1131445 100.289634,16.9266836 101.168989,16.9266836 C102.100643,16.9266836 103.004036,17.1930563 103.934716,17.7251519 L100.715505,21.8766674 C100.051198,21.5826829 99.5194271,21.4514456 99.0938805,21.4514456 C98.2690998,21.4514456 97.5489191,21.7691438 96.8833123,22.3827754 C95.9805688,23.2871431 95.1272017,24.9383288 94.3576446,27.3840847 L92.7594086,32.4929175 L86.5048484,32.4929175 L91.2696707,17.2726432" id="Fill-16" fill="#FFFFFF"></path>
                        <path d="M116.043628,11.472216 L114.234568,17.2726432 L117.639915,17.2726432 L116.310001,21.5307078 L112.878016,21.5307078 L111.200518,26.9328754 C110.98677,27.5708704 110.934146,27.9967418 110.98677,28.2095151 C111.093319,28.5294872 111.386654,28.715948 111.916801,28.715948 C112.371259,28.715948 113.061554,28.5824369 113.968195,28.3157393 L113.143414,32.3610306 C111.52049,32.6787287 110.029453,32.8398517 108.700838,32.8398517 C107.131188,32.8398517 106.038086,32.6546902 105.426403,32.2798194 C104.813421,31.9091716 104.442449,31.3231517 104.33525,30.5779579 C104.201089,29.8074263 104.415812,28.5824369 104.974544,26.8789512 L106.648469,21.5307078 L104.33525,21.5307078 L105.665489,17.2726432 L107.980008,17.2726432 L108.858713,14.4526662 L116.043628,11.472216" id="Fill-17" fill="#FFFFFF"></path>
                    </g>
                </g>
            </g>
        </g>
    </g>
</svg>