<?xml version="1.0" encoding="utf-8"?>
<!-- Generator: Adobe Illustrator 24.0.0, SVG Export Plug-In . SVG Version: 6.00 Build 0)  -->
<svg version="1.1" id="Layer_1" xmlns="http://www.w3.org/2000/svg" xmlns:xlink="http://www.w3.org/1999/xlink" x="0px" y="0px"
	 viewBox="0 0 294 138" style="enable-background:new 0 0 294 138;" xml:space="preserve">
<style type="text/css">
	.st0{fill-rule:evenodd;clip-rule:evenodd;fill:#242424;}
</style>
<g>
	<path class="st0" d="M145.08,77.48c1.99-2.35,3.09-5.45,3.09-8.69c0-7.14-5.26-13.29-13.1-13.29c-7.84,0-13.18,6.22-13.18,13.36
		s5.26,13.29,13.1,13.29c3.2,0,5.96-1.07,8.13-2.76l3.39,3.09l1.99-2.17L145.08,77.48L145.08,77.48z M140.99,77.52
		c-1.58,1.21-3.64,1.95-5.93,1.95c-5.89,0-10.16-4.78-10.16-10.67s4.2-10.6,10.08-10.6c5.89,0,10.16,4.78,10.16,10.67
		c0,2.54-0.85,4.9-2.25,6.7l-4.75-4.31l-1.95,2.17L140.99,77.52L140.99,77.52z M177.5,55.95h-2.91v14.98c0,5.63-3.02,8.5-7.77,8.5
		c-4.93,0-7.88-3.13-7.88-8.69v-14.8h-2.91v14.98c0,7.29,4.34,11.19,10.71,11.19c6.44,0,10.75-3.9,10.75-11.41V55.95H177.5z
		 M186.77,55.95v25.76h2.91V55.95H186.77L186.77,55.95z M199.36,81.72h17.41v-2.69h-14.5V55.95h-2.91V81.72L199.36,81.72z
		 M230.34,58.64h8.65v-2.69h-20.24v2.69h8.65v23.08h2.94V58.64L230.34,58.64z M256.32,58.64h8.65v-2.69h-20.24v2.69h8.65v23.08h2.94
		V58.64z"/>
	<g>
		<path class="st0" d="M104.49,90.11V69v-1.36l0,0V47.89l0,0v-0.08v-0.6l-0.52-0.3l-0.06-0.04L85.63,36.32L67.35,25.77l-0.06-0.04
			l-0.52-0.3l-0.52,0.3l-0.07,0.04l0,0l-17.1,9.88l0,0l-1.17,0.68L29.63,46.88l0,0l-0.07,0.04l-0.52,0.3v0.6v0.08l0,0v21.11v1.36
			l0,0v19.75l0,0v0.08v0.6l0.52,0.3l0.06,0.04l18.28,10.55l18.28,10.55l0.06,0.04l0.52,0.3l0.52-0.3l0.07-0.04l0,0l13.12-7.57
			l10.39,6l2.31,1.33l0,0l13.68-8.42l0.34-0.21l0,0l1.52-0.94l-2.31-1.33l-9.87-5.7l7.38-4.26l0,0l0.07-0.04l0.52-0.3v-0.6
			L104.49,90.11L104.49,90.11L104.49,90.11z M82.81,103.3l-2.33-1.35L69.1,95.38l-2.34-1.35l-1.2-0.69l-3.35-1.93l-5-2.89
			l-0.77-0.45l-0.52-0.3l-1.31-0.76l-9.53-5.5V69.28l0,0v-0.29V56.47l7.97-4.6l3.47,2h-0.08v21.07l0.22,0.13l2.13,1.23l12.48,7.2
			l3.47,2l2.15,1.24l1.24,0.72l1.76,1.01l0.58,0.34l11.37,6.57l2.34,1.35l9.94,5.74l-11,6.77L82.81,103.3L82.81,103.3z M88.44,84.22
			l1.75-1.01l0,0l0.06-0.04l0.52-0.3v-0.6v-0.08l0,0V69v-1.36l0,0V55.81l0,0v-0.08v-0.6l-0.52-0.3l-0.06-0.04l-11.43-6.6l-6.5-3.75
			l-4.93-2.84l-0.06-0.04l-0.52-0.3l-11.38-6.57l11.37-6.56l17.7,10.22l17.7,10.22v20.14l0,0V69v20.43l-7.97,4.6l-9.62-5.56
			l-1.75-1.01l-2.34-1.35l-0.78-0.45l-2.61-1.51V63.04l-0.13-0.08l-2.21-1.28L55.39,50.51l-1.69-0.97l-0.65-0.38l-9.73,5.62l0,0
			l-0.06,0.04l-0.52,0.3v0.6v0.08l0,0V69v1.36l0,0v11.83v0.08v0.61l0.52,0.3l0.06,0.04l11.43,6.6l6.3,3.64l3.35,1.93l1.78,1.03
			l11.96,6.9l-11.37,6.56l-17.7-10.22l-17.7-10.22V69.3l0,0v-0.29V48.58l17.69-10.22l0.25-0.14l0,0l3.73-2.16l11.38,6.57l2.34,1.35
			l4.35,2.51l6.5,3.75l2.57,1.49l8.27,4.78v12.23l0,0v0.29v6.26v6.26v2.67H88.44z M72.44,81.48L72.44,81.48L58.79,73.6V55.2
			l15.95,9.21v18.4L72.44,81.48z"/>
		<rect x="88.44" y="73.63" class="st0" width="2.34" height="19.46"/>
	</g>
</g>
</svg>
