<?xml version="1.0" encoding="utf-8"?>
<!-- Generator: Adobe Illustrator 21.0.0, SVG Export Plug-In . SVG Version: 6.00 Build 0)  -->
<svg version="1.1" id="Layer_1" xmlns="http://www.w3.org/2000/svg" xmlns:xlink="http://www.w3.org/1999/xlink" x="0px" y="0px"
	 viewBox="0 0 200 80" style="enable-background:new 0 0 200 80;" xml:space="preserve">
<style type="text/css">
	.st0{fill:#E50000;}
	.st1{fill:#FFFFFF;}
	.st2{font-family:'Helvetica';}
	.st3{font-size:4.1724px;}
</style>
<polygon class="st0" points="163,80 0,80 0,0 200,0 "/>
<g>
	<path class="st1" d="M135.2,45.6c-1.3,3.5-4.6,5.8-10.2,5.8c-4.6,0-9.2-2.7-8-8.9c0.9-5.2,5.6-8.7,11.1-8.7c6.1,0,8.9,4.2,7.8,9.1
		l-0.2,1.1h-11.5c0,0.2-0.2,0.7-0.2,1.3c0,1.5,0.8,2,1.7,2c1,0,2-0.6,2.4-1.7L135.2,45.6L135.2,45.6z M129.3,40.6l0.1-0.4
		c0.2-1.3-0.4-2.3-1.7-2.3c-1.3,0-2.4,0.9-2.7,2.7L129.3,40.6L129.3,40.6z M115.9,34.2c-1.8,0-3.2,0.9-4.2,2.3h-0.2l0.3-2.1h-7.4
		l-0.5,2.2l4.1-0.5l-0.1,0.4l-4.2,0.7L100.9,51h8c0,0,0.8-4,1.3-6.3c0.8-3.8,2.8-4.5,4.2-4.5c1.2,0,1.9,0.5,2,0.6l1.3-6.1
		C117.6,34.6,117,34.2,115.9,34.2 M43.2,41.2c-3.2-1-5.6-2.9-5.6-6.5c0-5.2,5.2-8.2,12.3-8.3c5.9,0,9.9,2.5,9.2,7.4h-8.5
		c0.3-1.3-0.5-2.1-2-2.1c-1.1,0-2,0.5-2.1,1.3c-0.2,0.9,0.5,1.6,2,2c1.3,0.4,2.1,0.6,3.4,0.9c3.6,1.1,5.3,3.2,5.7,5.4L47,42.4
		L43.2,41.2L43.2,41.2z M43.5,47l0.7-3.4h-9.1c-0.6,5.6,3.8,8,9.6,8c5.5,0,11.4-1.9,12.6-6.9L43.5,47L43.5,47z M90.6,35.5
		c0.6-0.5,2.2-1.6,4.5-1.6c2.4,0,4.3,1,5.2,3l-18.5,2l2.4-11.8h8l-1.8,8.5H90.6z M90.1,39.4c-0.5,0.7-0.9,1.7-1.3,3.2
		c-0.7,3.3,0.1,4.2,1,4.2c1.3,0,2.4-1.3,3-4.1c0.3-1.8,0.2-3.1-0.2-3.7l8-1.3c0.4,1.3,0.5,2.9,0.1,4.7c-1.2,6-4.8,9-8.8,9
		c-1.8,0-3.8-0.5-4.6-2.4h-0.2l-0.6,2h-7.2l2.1-10.2L90.1,39.4L90.1,39.4z M68.1,39.4c0.2-1,1-1.8,2-1.8c0.9,0,1.4,0.9,1.2,1.7
		l-0.1,0.6l7.4-0.8c-0.5-3.8-4.1-5.5-8.2-5.5c-6.2,0-9.2,3.1-9.8,5.8l-0.1,0.4H68L68.1,39.4 M58.9,44.4c-0.2,0.6-0.4,1.3-0.4,2.1
		c0,2.6,2,4.9,5.2,4.9c3,0,4.7-1.3,5.5-2.1h0.1l-0.2,1.6h7.5l1.8-8.7c0.1-0.3,0.2-0.7,0.2-1L58.9,44.4L58.9,44.4z M70.2,45.1
		c-0.2,1.3-1.1,2.3-2.3,2.3c-1.2,0-1.6-0.9-1.5-2c0.2-0.9,1.1-1.7,2.7-1.7h1.3L70.2,45.1L70.2,45.1z"/>
	<text transform="matrix(1 0 0 1 136.4258 51.3481)" class="st1 st2 st3">®</text>
</g>
</svg>
