<svg id="Layer_1" data-name="Layer 1" xmlns="http://www.w3.org/2000/svg" viewBox="0 0 381.24 111.5"><defs><style>.cls-1{fill:#5b2f91;}.cls-2{fill:#00bce7;}</style></defs><title>Artboard 4</title><path class="cls-1" d="M124.11,34.81s0,4,0,4.13a3.92,3.92,0,0,1-3.78,3.59H109.65V76.71h-10V42.53H85.73V34.82h38.38Z"/><path class="cls-1" d="M157.32,69v7.7H128.63V34.81h28.69v4.12a3.9,3.9,0,0,1-3.59,3.58h-15v9.29H154v7.7H138.69V69Z"/><polygon class="cls-1" points="188.81 68.98 188.81 76.69 161.84 76.69 161.84 34.81 171.83 34.81 171.83 68.98 188.81 68.98"/><path class="cls-1" d="M275,47.39a19.57,19.57,0,0,0-4.41-6.63,20.42,20.42,0,0,0-6.86-4.37,24.06,24.06,0,0,0-8.9-1.58H238.3V76.69h16.54a24.23,24.23,0,0,0,8.9-1.57,20.18,20.18,0,0,0,6.86-4.37A19.67,19.67,0,0,0,275,64.12a23.12,23.12,0,0,0,0-16.73M248.36,69.22V42.29h6.22a12.56,12.56,0,0,1,5,.93,10.07,10.07,0,0,1,3.7,2.67,12,12,0,0,1,2.31,4.24,20.08,20.08,0,0,1,0,11.24,11.92,11.92,0,0,1-2.31,4.24,10,10,0,0,1-3.7,2.67,12.45,12.45,0,0,1-5,.94Z"/><path class="cls-1" d="M321.32,47.49A19.77,19.77,0,0,0,317,40.86a20,20,0,0,0-6.71-4.42,22.53,22.53,0,0,0-8.71-1.62h-.27a22.91,22.91,0,0,0-8.72,1.61,20.11,20.11,0,0,0-6.74,4.41,19.72,19.72,0,0,0-4.33,6.64,23.06,23.06,0,0,0,0,16.53,19.53,19.53,0,0,0,11.07,11.08,22.91,22.91,0,0,0,8.72,1.6h.27a22.81,22.81,0,0,0,8.71-1.6,19.58,19.58,0,0,0,11-11.08,23,23,0,0,0,0-16.51M301.46,68.82a12.69,12.69,0,0,1-4.77-.89,9.66,9.66,0,0,1-3.63-2.57,11.81,11.81,0,0,1-2.26-4.13,19.55,19.55,0,0,1,0-11,11.71,11.71,0,0,1,2.26-4.12,9.8,9.8,0,0,1,3.63-2.59,12.56,12.56,0,0,1,4.77-.9,12.39,12.39,0,0,1,4.73.9,9.81,9.81,0,0,1,3.62,2.59,11.71,11.71,0,0,1,2.26,4.12,19.52,19.52,0,0,1,0,11,11.81,11.81,0,0,1-2.26,4.13,9.67,9.67,0,0,1-3.62,2.57,12.52,12.52,0,0,1-4.73.89"/><path class="cls-1" d="M218.66,34.81H208.44L192.24,76.69h7.87a3.21,3.21,0,0,0,2-.65,3.26,3.26,0,0,0,1.12-1.45l2.47-7.3h15.65l2.47,7.3A3.1,3.1,0,0,0,225,76.1a3.51,3.51,0,0,0,2.09.59h7.81ZM208,60.68l3.85-11.41q.44-1.09.92-2.59c.28-.85.55-1.77.82-2.74.28,1,.56,1.86.85,2.7l.88,2.57,3.85,11.46Z"/><path class="cls-1" d="M357.77,66.2l3.77,4a15.62,15.62,0,0,1-6.2,4.88,21.64,21.64,0,0,1-8.81,1.64h-.27a21.11,21.11,0,0,1-8.37-1.58,18.06,18.06,0,0,1-6.27-4.4,19.24,19.24,0,0,1-4-6.63,24.56,24.56,0,0,1-1.38-8.34,21.9,21.9,0,0,1,1.58-8.42,19.42,19.42,0,0,1,4.4-6.62A19.77,19.77,0,0,1,339,36.36a23.62,23.62,0,0,1,8.69-1.55H348a21.79,21.79,0,0,1,4.35.41,20.75,20.75,0,0,1,3.81,1.12,17.89,17.89,0,0,1,3.27,1.72A15.71,15.71,0,0,1,362,40.27l-3.21,4.3a4.16,4.16,0,0,1-.73.72,1.89,1.89,0,0,1-1.18.32h-.27a2.13,2.13,0,0,1-1-.22,10.13,10.13,0,0,1-1-.55l-1.11-.7a8.57,8.57,0,0,0-1.44-.71,12.51,12.51,0,0,0-1.94-.55,13.25,13.25,0,0,0-1.79-.21c-.18,0-.36,0-.55,0h-.13a11.91,11.91,0,0,0-4.6.91,10.41,10.41,0,0,0-3.67,2.62,12.06,12.06,0,0,0-2.39,4.13,16,16,0,0,0-.86,5.43,16.8,16.8,0,0,0,.86,5.6,12.18,12.18,0,0,0,2.33,4.12A9.83,9.83,0,0,0,342.92,68a10.13,10.13,0,0,0,4.13.87h.45l.46,0c.45,0,.87-.06,1.27-.1A9.18,9.18,0,0,0,353,67.51a12.19,12.19,0,0,0,1.67-1.23,3.24,3.24,0,0,1,.73-.46,1.83,1.83,0,0,1,.81-.19h.27a2,2,0,0,1,.67.13,1.94,1.94,0,0,1,.65.44"/><path class="cls-1" d="M34.45,1A33.44,33.44,0,1,0,67.89,34.45,33.44,33.44,0,0,0,34.45,1m0,49.08A15.64,15.64,0,1,1,50.09,34.44,15.64,15.64,0,0,1,34.44,50.08"/><path class="cls-2" d="M67.49,76.81v8.92a9.06,9.06,0,0,1-9.06,8.92H1.49V85.73a9.06,9.06,0,0,1,9.06-8.92Z"/><path class="cls-1" d="M374.54,78.72a5.67,5.67,0,0,1-2.24-.44A5.52,5.52,0,0,1,370.49,77a5.86,5.86,0,0,1-1.21-1.82,5.9,5.9,0,0,1,0-4.49,5.75,5.75,0,0,1,1.21-1.82,5.69,5.69,0,0,1,1.81-1.23,5.63,5.63,0,0,1,2.26-.45,5.53,5.53,0,0,1,2.24.45,5.8,5.8,0,0,1,3,7.53A5.86,5.86,0,0,1,378.59,77a5.54,5.54,0,0,1-1.81,1.22A5.68,5.68,0,0,1,374.54,78.72Zm0-1.1a4.46,4.46,0,0,0,1.79-.35,4.29,4.29,0,0,0,1.42-1,4.5,4.5,0,0,0,.94-1.47,5.07,5.07,0,0,0,0-3.63,4.5,4.5,0,0,0-.94-1.47,4.43,4.43,0,0,0-1.42-1,4.57,4.57,0,0,0-3.57,0,4.51,4.51,0,0,0-1.43,1,4.44,4.44,0,0,0-.95,1.47,5.07,5.07,0,0,0,0,3.63,4.5,4.5,0,0,0,.94,1.47,4.28,4.28,0,0,0,1.42,1A4.46,4.46,0,0,0,374.54,77.62Zm-2-7.56h2.24a2.46,2.46,0,0,1,.93.16,2,2,0,0,1,.64.4,1.51,1.51,0,0,1,.37.55,1.69,1.69,0,0,1,.12.6,1.88,1.88,0,0,1-.28,1,1.7,1.7,0,0,1-.85.68l1.41,2.4h-1.25l-1.3-2.25h-.92v2.25h-1.1Zm2.19,2.68a1,1,0,0,0,.74-.25.93.93,0,0,0,.23-.66.81.81,0,0,0-.25-.64,1.19,1.19,0,0,0-.79-.21h-1v1.76Z"/></svg>