<?xml version="1.0" encoding="UTF-8"?>
<svg width="197px" height="63px" viewBox="0 0 197 63" version="1.1" xmlns="http://www.w3.org/2000/svg" xmlns:xlink="http://www.w3.org/1999/xlink">
    <!-- Generator: Sketch 40.3 (33839) - http://www.bohemiancoding.com/sketch -->
    <title>YouScience Logo</title>
    <desc>Created with Sketch.</desc>
    <defs></defs>
    <g id="Page-1" stroke="none" stroke-width="1" fill="none" fill-rule="evenodd">
        <g id="YS-Design-How-It-Works" transform="translate(-50.000000, -25.000000)" fill="#5777B2">
            <g id="Header" transform="translate(0.000000, 1.000000)">
                <g id="YouScience-Logo" transform="translate(50.000000, 24.000000)">
                    <path d="M61.1978,24.0641 C66.3538,24.0641 69.7498,20.8571 69.7498,15.8881 C69.7498,10.9841 66.3858,7.7141 61.2908,7.7141 C56.1348,7.7141 52.7078,10.9841 52.7078,15.8571 C52.7078,20.8571 56.0088,24.0641 61.1978,24.0641 M61.2288,12.3041 C63.2098,12.3041 64.6248,13.7821 64.6248,15.8881 C64.6248,17.9321 63.1788,19.4421 61.2288,19.4421 C59.2158,19.4421 57.8328,17.9641 57.8328,15.8571 C57.8328,13.7821 59.2478,12.3041 61.2288,12.3041" id="Fill-3"></path>
                    <path d="M85.3746,7.8708 L84.7456,7.8708 C83.1736,7.8708 82.0726,8.5938 82.0726,10.7948 L82.0726,17.9008 C81.6016,18.6238 80.7526,19.1268 79.7456,19.1268 C78.4566,19.1268 77.7026,18.2468 77.7026,16.8318 L77.7026,10.7948 C77.7026,8.5308 76.5706,7.8708 74.9346,7.8708 L74.3376,7.8708 C72.7656,7.8708 71.6646,8.5938 71.6646,10.7948 L71.6646,17.9008 C71.6646,21.1078 73.1436,24.0638 77.1986,24.0638 C79.7146,24.0638 81.2236,22.8058 82.3236,21.1398 C82.8906,23.2148 84.4306,23.7808 85.7836,23.7808 C87.0096,23.7808 88.1096,23.2778 88.1096,23.0888 L88.1096,10.7948 C88.1096,8.5308 86.9786,7.8708 85.3746,7.8708" id="Fill-5"></path>
                    <path d="M97.0371,15.1654 C94.2701,14.5674 92.8551,14.1274 92.8551,12.5244 C92.8551,11.0464 94.1751,10.0094 96.6281,10.0094 C98.6721,10.0094 100.1821,10.9204 101.0301,12.2094 C101.0931,12.3044 102.1621,11.9264 102.1621,11.1404 C102.1621,10.0094 100.2751,8.2794 96.6281,8.2794 C93.1691,8.2794 90.9051,10.1344 90.9051,12.8074 C90.9051,15.8254 93.8291,16.4864 96.1571,16.9884 C98.9871,17.5864 100.5581,17.9644 100.5581,19.7564 C100.5581,21.2654 99.1751,22.2714 96.6911,22.2714 C94.2071,22.2714 92.5721,21.2334 91.5661,19.8504 C91.5031,19.7874 90.4651,20.1024 90.4651,20.9514 C90.4651,22.0824 92.6351,24.0004 96.6281,24.0004 C100.2751,24.0004 102.5391,22.2084 102.5391,19.4424 C102.5391,16.3604 99.4581,15.7004 97.0371,15.1654" id="Fill-7"></path>
                    <path d="M112.5681,10.1029 C115.4291,10.1029 116.8761,11.5499 117.6611,13.4049 C117.7241,13.5309 119.0141,13.3419 119.0141,12.4299 C119.0141,11.0779 116.9391,8.2799 112.5681,8.2799 C108.1651,8.2799 104.8641,11.5809 104.8641,16.1089 C104.8641,20.6679 108.1651,24.0009 112.5681,24.0009 C116.9391,24.0009 119.0141,21.2029 119.0141,19.8509 C119.0141,18.9389 117.7241,18.7499 117.6611,18.8759 C116.8761,20.7309 115.4291,22.1769 112.5681,22.1769 C109.3301,22.1769 106.9391,19.5989 106.9391,16.1089 C106.9391,12.6179 109.3601,10.1029 112.5681,10.1029" id="Fill-9"></path>
                    <path d="M123.4448,8.5311 L123.2248,8.5311 C122.6908,8.5311 122.3138,8.7511 122.3138,9.5061 L122.3138,22.7741 C122.3138,23.5291 122.6908,23.7491 123.2248,23.7491 L123.4448,23.7491 C123.9798,23.7491 124.3578,23.5291 124.3578,22.7741 L124.3578,9.5061 C124.3578,8.7511 123.9798,8.5311 123.4448,8.5311" id="Fill-11"></path>
                    <path d="M123.3821,2.2112 C122.4701,2.2112 121.9991,2.6512 121.9991,3.5632 C121.9991,4.4442 122.4701,4.9152 123.3201,4.9152 C124.2311,4.9152 124.7041,4.4752 124.7041,3.5632 C124.7041,2.6512 124.2631,2.2112 123.3821,2.2112" id="Fill-13"></path>
                    <path d="M135.2673,8.2794 C130.9283,8.2794 127.7213,11.6444 127.7213,16.2034 C127.7213,20.7944 130.8963,24.0004 135.4563,24.0004 C139.5123,24.0004 141.7753,21.7054 141.7753,20.6674 C141.7753,19.6934 140.6443,19.4104 140.5803,19.5044 C139.7013,20.9194 138.3803,22.1764 135.4563,22.1764 C132.2803,22.1764 129.9223,19.8814 129.7653,16.7064 L141.3993,16.7064 C142.0273,16.7064 142.2473,16.5804 142.2473,16.0144 L142.2473,15.8254 C142.2473,11.2664 139.4813,8.2794 135.2673,8.2794 L135.2673,8.2794 Z M129.8583,14.9454 C130.2993,12.0834 132.4373,10.0714 135.2673,10.0714 C138.0643,10.0714 139.8903,11.9904 140.0773,14.9454 L129.8583,14.9454 Z" id="Fill-15"></path>
                    <path d="M152.5269,8.2794 C150.1999,8.2794 148.4709,9.4114 147.4349,10.9834 L147.4349,10.5124 C147.4349,8.8774 146.8039,8.5314 146.1139,8.5314 C145.7359,8.5314 145.4219,8.6884 145.4219,8.7514 L145.4219,22.7744 C145.4219,23.5294 145.7979,23.7484 146.3339,23.7484 L146.5539,23.7484 C147.0879,23.7484 147.4649,23.5294 147.4649,22.7744 L147.4649,13.3724 C148.3459,11.4864 150.0749,10.1974 152.4019,10.1974 C154.9479,10.1974 156.4259,12.0214 156.4259,15.0084 L156.4259,22.7744 C156.4259,23.5294 156.8039,23.7484 157.3379,23.7484 L157.5579,23.7484 C158.0939,23.7484 158.4689,23.5294 158.4689,22.7744 L158.4689,14.8824 C158.4689,10.9204 156.4899,8.2794 152.5269,8.2794" id="Fill-17"></path>
                    <path d="M169.254,10.1029 C172.114,10.1029 173.562,11.5499 174.346,13.4049 C174.41,13.5309 175.7,13.3419 175.7,12.4299 C175.7,11.0779 173.624,8.2799 169.254,8.2799 C164.851,8.2799 161.55,11.5809 161.55,16.1089 C161.55,20.6679 164.851,24.0009 169.254,24.0009 C173.624,24.0009 175.7,21.2029 175.7,19.8509 C175.7,18.9389 174.41,18.7499 174.346,18.8759 C173.562,20.7309 172.114,22.1769 169.254,22.1769 C166.016,22.1769 163.626,19.5989 163.626,16.1089 C163.626,12.6179 166.047,10.1029 169.254,10.1029" id="Fill-19"></path>
                    <path d="M185.3815,8.2794 C181.0425,8.2794 177.8355,11.6444 177.8355,16.2034 C177.8355,20.7944 181.0115,24.0004 185.5705,24.0004 C189.6255,24.0004 191.8905,21.7054 191.8905,20.6674 C191.8905,19.6934 190.7595,19.4104 190.6955,19.5044 C189.8145,20.9194 188.4945,22.1764 185.5705,22.1764 C182.3935,22.1764 180.0365,19.8814 179.8785,16.7064 L191.5125,16.7064 C192.1415,16.7064 192.3635,16.5804 192.3635,16.0144 L192.3635,15.8254 C192.3635,11.2664 189.5955,8.2794 185.3815,8.2794 L185.3815,8.2794 Z M179.9725,14.9454 C180.4145,12.0834 182.5515,10.0714 185.3815,10.0714 C188.1805,10.0714 190.0035,11.9904 190.1925,14.9454 L179.9725,14.9454 Z" id="Fill-21"></path>
                    <path d="M62.8713,34.097 C59.0713,32.003 55.0623,30.325 50.9373,29.017 C50.9833,28.513 51.0383,28.008 51.0743,27.503 C51.6593,19.277 51.1623,11.106 50.1803,3.05 C50.0453,1.938 49.1683,1.013 48.0053,0.868 C46.6343,0.697 45.3843,1.67 45.2133,3.041 C44.7453,6.787 43.9193,10.504 42.3333,13.639 C41.5473,15.198 40.5453,16.577 39.3643,17.556 C38.1793,18.529 36.8383,19.063 35.4343,19.078 C34.0313,19.088 32.5603,18.585 31.2633,17.678 C29.9573,16.785 28.8333,15.519 27.9893,14.078 C27.1403,12.636 26.5783,11.007 26.3223,9.327 C26.1943,8.486 26.1423,7.632 26.1663,6.776 C26.1773,6.352 26.2123,5.913 26.2573,5.5 L26.3373,4.896 L26.4683,4.164 C26.6903,2.925 25.8753,1.734 24.6363,1.496 C23.3883,1.258 22.1823,2.076 21.9433,3.324 L21.8033,4.055 L21.6733,4.924 C21.6023,5.498 21.5543,6.048 21.5323,6.615 C21.4873,7.743 21.5413,8.878 21.6993,10.001 C22.0153,12.248 22.7403,14.449 23.8813,16.444 C25.0183,18.436 26.5543,20.244 28.5103,21.623 C30.4483,22.999 32.8763,23.929 35.4583,23.928 C36.7403,23.915 38.0383,23.688 39.2283,23.223 C40.4213,22.765 41.5103,22.109 42.4573,21.342 C44.0213,20.058 45.1993,18.515 46.1403,16.909 C46.2173,20.323 46.1743,23.729 45.9103,27.107 C45.8973,27.273 45.8653,27.436 45.8523,27.602 C43.7513,27.101 41.6323,26.687 39.5003,26.366 C35.4233,25.769 31.3033,25.485 27.1753,25.521 C23.0463,25.561 18.9093,25.908 14.7913,26.705 C12.7323,27.108 10.6773,27.624 8.6303,28.347 C6.5843,29.098 4.5353,29.941 2.5263,31.631 C2.0273,32.065 1.5293,32.57 1.0753,33.224 C0.6263,33.869 0.2133,34.704 0.0563,35.701 C-0.0717,36.866 0.0583,37.184 0.0583,37.781 C0.0753,38.332 0.1633,38.879 0.2153,39.429 C0.4833,41.623 1.0223,43.789 1.8173,45.858 C3.3973,49.999 5.9653,53.77 9.3183,56.699 C12.6523,59.63 16.7543,61.78 21.2333,62.622 C23.4643,63.057 25.7883,63.108 28.0723,62.819 C30.3553,62.509 32.5873,61.793 34.6373,60.762 C38.7493,58.664 41.9673,55.29 44.2653,51.604 C46.5893,47.899 48.0913,43.865 49.1463,39.805 C49.6933,37.635 50.1163,35.45 50.4413,33.261 C54.1113,34.334 57.6843,35.719 61.0873,37.454 C64.5313,39.219 67.8223,41.296 70.8263,43.747 C73.8273,46.198 76.5533,48.995 78.9433,52.073 C79.3773,52.63 80.1783,52.764 80.7693,52.361 C81.3853,51.941 81.5433,51.101 81.1233,50.486 C76.4853,43.693 70.0993,38.085 62.8713,34.097 M44.0583,38.478 C43.0803,42.145 41.7113,45.682 39.7513,48.751 C37.8093,51.819 35.2463,54.392 32.1923,55.924 C29.1423,57.451 25.6393,57.904 22.2423,57.25 C18.8443,56.612 15.5953,54.932 12.9343,52.584 C10.2673,50.235 8.1453,47.245 6.8513,43.917 C6.1953,42.258 5.7433,40.517 5.5103,38.742 C5.4673,38.296 5.3863,37.854 5.3713,37.405 C5.3463,37.004 5.3053,36.321 5.3103,36.49 C5.2723,36.517 5.4753,36.048 6.0083,35.607 C7.0533,34.688 8.7263,33.867 10.4133,33.226 C12.1263,32.58 13.9523,32.075 15.8113,31.673 C19.5353,30.871 23.3973,30.461 27.2663,30.344 C31.1383,30.232 35.0293,30.418 38.8813,30.901 C41.0463,31.166 43.1993,31.533 45.3343,31.985 C45.0093,34.181 44.6073,36.355 44.0583,38.478" id="Fill-23"></path>
                    <path d="M194.4558,5.0331 C194.3728,4.8741 194.3338,4.8371 194.3338,4.8371 L194.3338,4.8191 C194.6248,4.7441 194.9778,4.4281 194.9778,3.8881 C194.9778,3.2361 194.5388,2.8161 193.8778,2.8161 L192.8268,2.8161 C192.6198,2.8161 192.5188,2.9181 192.5188,3.1241 L192.5188,6.0301 C192.5188,6.2251 192.6108,6.3281 192.8068,6.3281 L192.8928,6.3281 C193.0878,6.3281 193.1808,6.2251 193.1808,6.0301 L193.1808,4.9681 L193.7578,4.9681 L194.2978,6.1051 C194.3728,6.2621 194.4848,6.3281 194.6608,6.3281 L194.7728,6.3281 C194.9868,6.3281 195.0518,6.1881 194.9398,5.9741 L194.4558,5.0331 Z M193.7378,4.4841 L193.1808,4.4841 L193.1808,3.3191 L193.7478,3.3191 C194.0938,3.3191 194.3068,3.5251 194.3068,3.8881 C194.3068,4.2601 194.0938,4.4841 193.7378,4.4841 L193.7378,4.4841 Z" id="Fill-25"></path>
                    <path d="M193.6549,1.1865 C191.8309,1.1865 190.3479,2.6955 190.3479,4.5865 C190.3479,6.4775 191.8309,7.9855 193.6549,7.9855 C195.5179,7.9855 196.9999,6.4775 196.9999,4.5865 C196.9999,2.6955 195.5179,1.1865 193.6549,1.1865 M193.6549,7.3525 C192.1749,7.3525 191.0279,6.1425 191.0279,4.5865 C191.0279,3.0315 192.1749,1.8195 193.6549,1.8195 C195.1639,1.8195 196.3179,3.0315 196.3179,4.5865 C196.3179,6.1425 195.1639,7.3525 193.6549,7.3525" id="Fill-27"></path>
                </g>
            </g>
        </g>
    </g>
</svg>